<svg xmlns="http://www.w3.org/2000/svg" version="1.1" xmlns:xlink="http://www.w3.org/1999/xlink" xmlns:svgjs="http://svgjs.com/svgjs" width="512" height="512"><svg width="512" height="512" xmlns="http://www.w3.org/2000/svg" xmlns:svg="http://www.w3.org/2000/svg" version="1.1">
 <metadata id="SvgjsMetadata1013">image/svg+xml</metadata>
 <linearGradient id="SvgjsLinearGradient1012" spreadMethod="pad" x1="30%" x2="-10%" y1="120%" y2="30%">
  <stop id="SvgjsStop1011" offset="0%" stop-color="#ffffff"></stop>
  <stop id="SvgjsStop1010" offset="100%" stop-color="#000000"></stop>
 </linearGradient>
 <linearGradient gradientTransform="rotate(-30)" id="SvgjsLinearGradient1009" spreadMethod="pad" x1="30%" x2="-10%" y1="120%" y2="30%">
  <stop id="SvgjsStop1008" offset="0%" stop-color="#ffffff"></stop>
  <stop id="SvgjsStop1007" offset="50%" stop-color="#cccccc"></stop>
  <stop id="SvgjsStop1006" offset="100%" stop-color="#000000"></stop>
 </linearGradient>
 <g class="layer">
  <title>Layer 1</title>
  <g id="SvgjsG1005">
   <g id="SvgjsG1004">
    <g id="SvgjsG1002">
     <path d="m26.49,361.57c-40.06,-96.08 -29.11,-185.7 32.85,-263.79c61.45,-77.32 148.1,-97.18 243.42,-83.09c89.12,13.16 158.46,54.23 191.56,142.42c43.29,115.51 -26.57,284.92 -133.51,325.66c-109.15,41.5 -277.37,-18.5 -334.23,-121.12m291.63,-289.17c-69.51,-16.3 -135.88,-14.85 -191.05,38.28c-61.28,58.9 -73.59,167.97 -28.94,243.59c37.51,63.57 148.44,104.39 226.36,80.97c21.47,-6.45 45.49,-16.21 59.92,-32.17c87.59,-96.84 68.49,-289.08 -66.2,-330.58l-0.08,-0.08z" fill="#6E778F" id="SvgjsPath1001" xmlns="http://www.w3.org/2000/svg"></path>
     <path d="m194.37,335.43c-46.6,-35.9 -54.83,-82.75 -25.29,-133.42c26.82,-45.92 82.07,-61.45 133.85,-37.68c44.56,20.45 63.99,66.71 48.89,116.36c-16.21,52.88 -59.16,77.83 -116.53,66.97c-12.99,-2.46 -25.63,-7.13 -40.82,-12.22m66.03,-150.74c-11.46,4.33 -22.83,8.66 -34.2,12.99c7.47,12.14 13.49,25.72 23.26,35.48c3.23,3.14 24.19,-4.58 24.1,-6.11c-1.27,-13.24 -5.43,-26.23 -13.16,-42.35z" fill="#6D768E" id="SvgjsPath1000" xmlns="http://www.w3.org/2000/svg"></path>
    </g>
   </g>
  </g>
 </g>
</svg><style>@media (prefers-color-scheme: light) { :root { filter: none; } }
@media (prefers-color-scheme: dark) { :root { filter: contrast(0.3846153846153846) brightness(4.5); } }
</style></svg>