<?xml version="1.0" standalone="no"?>
<!DOCTYPE svg PUBLIC "-//W3C//DTD SVG 20010904//EN"
 "http://www.w3.org/TR/2001/REC-SVG-20010904/DTD/svg10.dtd">
<svg version="1.0" xmlns="http://www.w3.org/2000/svg"
 width="700.000000pt" height="700.000000pt" viewBox="0 0 700.000000 700.000000"
 preserveAspectRatio="xMidYMid meet">
<metadata>
Created by potrace 1.14, written by Peter Selinger 2001-2017
</metadata>
<g transform="translate(0.000000,700.000000) scale(0.100000,-0.100000)"
fill="#000000" stroke="none">
<path d="M3248 6855 c-2 -1 -57 -5 -123 -9 -66 -3 -131 -8 -145 -10 -14 -3
-52 -7 -85 -11 -63 -6 -163 -21 -205 -30 -14 -3 -37 -7 -52 -10 -15 -2 -35 -6
-45 -9 -10 -3 -29 -7 -43 -10 -91 -16 -326 -89 -475 -148 -115 -46 -330 -150
-381 -184 -19 -13 -37 -24 -40 -24 -4 0 -135 -85 -209 -137 -180 -125 -522
-452 -613 -585 -9 -13 -19 -25 -22 -28 -4 -3 -38 -48 -77 -100 -250 -339 -429
-680 -543 -1035 -33 -104 -84 -305 -94 -372 -4 -21 -11 -63 -16 -93 -11 -62
-17 -109 -29 -236 -9 -87 -7 -520 2 -579 3 -16 8 -57 12 -90 36 -319 135 -693
278 -1050 90 -227 429 -635 727 -879 52 -42 103 -84 113 -92 168 -137 609
-400 827 -493 30 -13 78 -34 105 -46 227 -103 647 -238 865 -279 14 -2 45 -9
70 -14 25 -6 61 -13 80 -16 19 -3 46 -8 60 -10 14 -3 75 -12 135 -20 102 -14
146 -18 315 -31 190 -15 486 -4 690 26 175 25 175 25 312 59 328 83 596 211
860 411 115 88 143 113 303 273 396 398 712 925 910 1520 47 140 108 352 120
418 3 12 14 66 25 120 11 53 22 114 25 135 3 21 7 47 9 58 3 18 12 86 22 180
18 163 23 451 11 625 -27 392 -118 728 -292 1088 -228 469 -543 834 -955 1109
-372 247 -832 426 -1330 516 -172 32 -247 43 -330 52 -24 2 -59 7 -79 9 -45 6
-141 16 -229 22 -71 5 -460 13 -464 9z m357 -729 c55 -3 111 -8 125 -10 14 -2
50 -7 80 -10 83 -10 133 -16 150 -20 8 -1 38 -6 65 -11 28 -4 102 -18 165 -32
63 -13 124 -26 134 -28 185 -40 552 -227 725 -370 364 -301 599 -639 762
-1096 35 -99 89 -287 104 -364 10 -48 42 -246 49 -294 25 -189 26 -556 1 -751
-2 -19 -7 -57 -10 -85 -26 -209 -125 -588 -200 -760 -7 -16 -24 -55 -36 -85
-64 -149 -193 -375 -282 -498 -63 -87 -181 -228 -221 -265 -110 -103 -304
-222 -466 -287 -30 -12 -68 -28 -85 -35 -128 -55 -448 -137 -582 -150 -26 -2
-75 -7 -108 -10 -69 -7 -336 -7 -410 0 -27 2 -75 7 -105 11 -30 3 -66 7 -80 9
-41 4 -111 16 -165 26 -27 6 -61 12 -75 15 -14 3 -33 7 -42 10 -10 3 -30 8
-45 10 -90 16 -328 92 -482 154 -514 205 -946 528 -1183 885 -91 138 -209 383
-262 549 -48 146 -89 306 -101 391 -3 23 -7 50 -9 60 -41 219 -50 561 -21 800
2 17 7 53 10 80 5 42 13 88 39 220 43 220 151 516 264 724 78 144 80 146 143
236 271 386 654 686 1074 842 101 38 312 95 395 107 19 3 46 8 60 11 42 8 109
14 220 21 58 4 106 7 107 8 4 3 197 -2 298 -8z"/>
<path d="M3417 4904 c-1 -1 -38 -4 -82 -8 -368 -31 -727 -237 -947 -543 -158
-220 -279 -520 -304 -753 -41 -370 82 -705 364 -996 167 -173 183 -183 414
-258 189 -61 300 -91 373 -102 17 -3 40 -7 52 -9 113 -25 433 -24 543 0 14 3
36 8 50 11 49 9 136 36 195 60 380 156 643 485 759 949 27 108 38 198 41 330
3 159 -7 249 -45 380 -106 371 -361 650 -739 809 -106 45 -256 91 -328 101
-21 3 -43 8 -50 10 -22 7 -289 24 -296 19z m191 -533 c71 -169 132 -381 132
-463 0 -32 -166 -96 -270 -103 -52 -3 -58 1 -130 91 -59 73 -245 392 -236 402
8 7 437 171 452 171 5 1 29 -43 52 -98z"/>
</g>
</svg>
