<svg xmlns="http://www.w3.org/2000/svg" data-name="aa84af91-0702-4b62-89c3-2dfa5ff16184" viewBox="0 0 865.8 682.9"><path fill="#ff6d60" d="M287 216s-62 70-63 78c0 0-9 12 15 26l36 26 21-22-11-73s-3-30 2-35Z" data-secondary="true"/><path d="m283 246 2-19 2 21-4-2z" opacity=".4" style="isolation:isolate"/><rect width="65.3" height="6.1" x="407.9" y="651.3" fill="#373660" rx="2.6" transform="rotate(-1 439 652)"/><path fill="#fed0bc" d="m638 621-2-24 20-4 2 22s-9 10-20 6Z"/><path fill="#ff6d60" d="m609 653 56-21-6-16a2 2 0 0 0-2-1 4 4 0 0 0-3 2 4 4 0 0 1-3 3c-2 0-4 0-7-3 1 0-6-6-9 2l-9 19a10 10 0 0 1-7 5c-4 1-9 3-10 10Z" data-secondary="true"/><rect width="65.2" height="6.1" x="606" y="641.7" fill="#373660" rx="2.6" transform="rotate(-20 639 645)"/><path fill="#fed0bc" d="m709 615-2-24 20-5 2 23s-9 10-20 6Z"/><path fill="#ff6d60" d="m680 646 56-21-6-16a2 2 0 0 0-2-1 4 4 0 0 0-3 3 4 4 0 0 1-3 2 6 6 0 0 1-7-2s-6-7-9 2l-10 19a10 10 0 0 1-6 5c-4 1-9 3-10 9Z" data-secondary="true"/><rect width="65.2" height="6.1" x="676.9" y="635.5" fill="#373660" rx="2.6" transform="rotate(-20 710 639)"/><path fill="#ebebeb" d="M810 387H578V46h232Zm-226-6h219V53H584Z"/><path fill="#ebebeb" d="M690 54h7v330h-7z"/><path fill="#ebebeb" d="M572 59h243v9H572zm0 10h243v9H572zm0 10h243v8H572zm0 9h243v9H572zm0 10h243v9H572zm0 10h243v9H572zm0 10h243v9H572zm0 10h243v8H572zm0 9h243v9H572z"/><path fill="#263238" d="M795 57h2v201h-2z"/><path fill="#263238" d="M799 265h-6l2-8h2l2 8zm2-208h1v275h-1z"/><path fill="#263238" d="M804 338h-5l1-8h3l1 8z"/><path fill="#dbdbdb" d="M562 45h263v18H562z"/><path fill="#373660" d="M610 395s-2 101 9 139l14 77 26-10c-1-14 1-15-2-31a491 491 0 0 0-13-51l13-75 6-31-45-21Z"/><path d="M610 395s-2 101 9 139l15 76 25-9c-1-14 1-15-2-31a491 491 0 0 0-13-51l13-75 6-31-45-21Z" opacity=".2" style="isolation:isolate"/><path fill="#373660" d="M618 392s3 27 34 37l52 170 27-8c-3-16-3-22-10-41l-14-38c4-12 7-37 5-68-2-35-14-72-49-78Z"/><path fill="#ff6d60" d="M349 194s-13 2-1 8l5 2v-7Z" data-secondary="true"/><path d="M349 194s-13 2-1 8l5 2v-7Z" opacity=".4" style="isolation:isolate"/><path fill="#ff6d60" d="M383 201s12 6 13 9l-8 4a35 35 0 0 1-5-13Z" data-secondary="true"/><path fill="#ffc967" d="M230 27h206v127H230z" data-primary="true"/><path d="M264 75h6v66h-6zm20-18h4v84h-4zm23 53h4v31h-4zm28-11h5v42h-5zm33-22h6v64h-6zm32-22h6v86h-6z" opacity=".2"/><path fill="#ff6d60" d="M439 228s19 41 11 98l-7 88h-24l4-22s-6-69-4-82c0 0 4-61 20-82Z" data-secondary="true"/><path d="M424 269s-15 54-5 100l10 3-2-62Z" opacity=".4" style="isolation:isolate"/><path fill="#fed0bc" d="m399 601 16 40s11 2 18-7l-13-37Z"/><path fill="#ff6d60" d="m473 652-63 1-1-18a2 2 0 0 1 2-2 5 5 0 0 1 4 1 4 4 0 0 0 4 2c2 0 4-2 5-5 0 0 4-9 10-2l17 15a10 10 0 0 0 8 2c4 0 10 0 14 6Z" data-secondary="true"/><path fill="#fed0bc" d="m297 582 3 42s10 5 18-1l-1-38Z"/><path fill="#ff6d60" d="M298 612s-3 13-7 18c-3 5-2 8 3 11 5 1 12 0 23-1 4-3 7-6 4-10-2-4-2-17-2-17Z" data-secondary="true"/><path d="M298 612s-3 13-7 18c-3 5-2 8 3 11 5 1 12 0 23-1 4-3 7-6 4-10-2-4-2-17-2-17Z" opacity=".4" style="isolation:isolate"/><path fill="#ff6d60" d="M306 623c-9 0-17 7-17 14h35c0-7-8-14-18-14Z" data-secondary="true"/><rect width="37.5" height="6.3" x="286.9" y="637.1" fill="#373660" rx="2.6" transform="rotate(-1 305 638)"/><path fill="#ff6d60" d="m517 539-14 120h15l14-105h71l14 105h16l-14-120H517z" data-secondary="true"/><path d="m517 539-14 120h15l14-105h71l14 105h16l-14-120H517z" opacity=".4" style="isolation:isolate"/><path fill="#fed0bc" d="m478 619-9-22 18-10 8 21s-5 12-17 11Z"/><path fill="#ffc967" d="m460 658 47-36-10-14a2 2 0 0 0-2-1 4 4 0 0 0-3 4 4 4 0 0 1-2 3c-1 1-4 2-7 0 0 0-8-5-8 5l-4 20a10 10 0 0 1-5 7c-3 2-8 6-6 12Z" data-primary="true"/><rect width="65.2" height="6.1" x="452.9" y="638.8" fill="#373660" rx="2.6" transform="rotate(-37 486 642)"/><path fill="#373660" d="m415 377 22 246h-30l-46-160 9-26 5-42 40-18z"/><path d="m380 459 19 135-38-131 10-28 3-27 6 51z" opacity=".2" style="isolation:isolate"/><path fill="#373660" d="M310 389s-18 77-21 155a73 73 0 0 0 0 8l6 51h27s22-103 50-166l5-42Zm193 63h-61s-37 6-16 48l37 101 32-7-25-105 45-20Z"/><path d="M503 452h-61s-37 6-16 48l37 101 32-7-25-105 45-20Z" opacity=".2" style="isolation:isolate"/><path fill="#fed0bc" d="m387 624 12-21 19 8-11 19s-14 3-20-6Z"/><path fill="#ffc967" d="m345 633 58 15 4-17a2 2 0 0 0-1-1 4 4 0 0 0-4 0 4 4 0 0 1-4 0c-1-1-3-2-4-6 0 0-1-9-9-3l-18 9a10 10 0 0 1-8 1c-4-2-10-3-14 2Z" data-primary="true"/><rect width="6.1" height="65.2" x="370.6" y="611" fill="#373660" rx="2.6" transform="rotate(-75 374 644)"/><path fill="#fed0bc" d="m353 194 2 51 16 19 20-25 3-18s-16-13-11-37Z"/><path fill="#f4a57f" d="M381 186s-8 23-27 28l-1-17Z"/><path fill="#ff6d60" d="m439 228-16 164s-75 12-114-3c0 0-36-157-22-173 0 0 32-9 47-10a4 4 0 0 0 4-3 11 11 0 0 1 10-9c-1 0-8 2-1 7a8 8 0 0 0 3 2c4 0 11 2 17 6 4 2 6 5 7 9a41 41 0 0 1-1 10 15 15 0 0 1-1 2 7 7 0 0 1-1 3 10 10 0 0 0-3 3 24 24 0 0 0-1 14 2 2 0 0 0 4 0c1-4 4-9 8-11a7 7 0 0 0 3-5l1-6v-4a14 14 0 0 1 1-3 16 16 0 0 1 7-9h1a17 17 0 0 1 4-2Z" data-secondary="true"/><path fill="#f4a57f" d="m529 219-2-11-3-1h-4l-2 4 8 9 3-1zm-2-29s-12 1-13 17l3-6s3-6 7-6h3ZM344 308l3 9 18 3s-15-12-21-12Z"/><path fill="#ffc967" d="m426 408 3-38a4 4 0 0 1 4 4s3-5 7 0l29-34 7 32-17 33-10-1v4Z" data-primary="true"/><path d="m426 408 3-38a4 4 0 0 1 4 4s3-5 7 0l29-34 7 32-17 33-10-1v4Z" opacity=".2" style="isolation:isolate"/><path fill="#373660" d="M602 465s21 45-42 58l-88 2a20 20 0 0 1-9 10l-48 89-25-10 33-121s2-20 23-24l59-12 24-10Z"/><path fill="#f4a57f" d="m655 350 5-3-1-3-2 1-4 5Z"/><path fill="#ff6d60" d="m548 279 30-16-2 25-6 12a7 7 0 0 1-3 4l-10 4c0-1 3-15-9-29Z" data-secondary="true"/><path d="M529 177s-14 49 25 91c0 0-21-29-21-48 0 0 26 36 54 34 0 0 33 92 61 95a6 6 0 0 0 3 0c7-3 32-18 24-54 0 0-9-39-39-62 0 0 39 16 44 78a7 7 0 0 0 2-7s3-53-46-79a53 53 0 0 1 39 34s3-24-43-41l-24-6s7-57-39-64c0 0-31-5-40 29Z"/><path fill="#ff6d60" d="M188 155V27L56 155h132z" data-secondary="true"/><path d="M188 155V27L56 155h132z" opacity=".2" style="isolation:isolate"/><path fill="none" stroke="#fff" stroke-miterlimit="10" d="M75 46v91l88-5 6-86H75z"/><path fill="#ff6d60" d="M56 27v128l124-7 8-121H56z" data-secondary="true"/><path fill="none" stroke="#fff" stroke-miterlimit="10" d="M75 63h91M75 81h90M75 97h89m-89 17h88M90 46v90m17-90v89m18-89v88m17-88v87"/><path fill="#373660" d="m47 40 7 8 28-18-5-10-30 20z"/><path fill="none" stroke="#fff" stroke-miterlimit="10" d="M75 45v92l87-5 5-87H75z"/><path fill="#ffc967" d="m94 248 4-35 34 4-4 35-34-4z" data-primary="true"/><path fill="#ff6d60" d="m91 221 18-12 4 6-18 11-4-5z" data-secondary="true"/><path fill="#ffc967" d="m50 236-5-34 35-5 6 34-36 5z" data-primary="true"/><path d="m50 236 30-39-35 5 5 34z" opacity=".2" style="isolation:isolate"/><path fill="#ff6d60" d="m41 206 18-11 4 5-18 12-4-6z" data-secondary="true"/><path fill="#ff6d60" d="m41 206 18-11 4 5-18 12-4-6z" data-secondary="true"/><path d="m41 206 18-11 4 5-18 12-4-6z" opacity=".4" style="isolation:isolate"/><path fill="#ffc967" d="M603 90h-56a14 14 0 0 0-14 14v19a14 14 0 0 0 14 14h35l4 6a4 4 0 0 0 6 2 4 4 0 0 0 1-1l6-7h5a14 14 0 0 0 13-14v-19a14 14 0 0 0-14-14Z" data-primary="true"/><circle cx="552.1" cy="114.4" r="6.9" fill="#fff"/><circle cx="574.5" cy="114.4" r="6.9" fill="#ff6d60" data-secondary="true"/><circle cx="598" cy="114.4" r="6.9" fill="#fff"/><path fill="#ff6d60" d="M115 515c6-4 13-4 20-3 4 1 8 2 10 5s3 7 0 10a10 10 0 0 1-6 1c-5 0-11-1-15 2l-7 6a7 7 0 0 1-8-3 12 12 0 0 1-1-9 13 13 0 0 1 7-9Zm-14-28c4 6 11 4 14 1s5-8 7-13c3-10 6-21 3-32a18 18 0 0 0-4-8 9 9 0 0 0-8-3c-4 1-6 4-8 8a76 76 0 0 0-8 32c0 6 1 11 4 15m-10 8c4-5 4-12 3-18a35 35 0 0 0-11-15 57 57 0 0 0-19-12 21 21 0 0 0-9-1 9 9 0 0 0-7 4c-2 4 0 9 2 12a145 145 0 0 0 13 20c3 4 8 9 13 11s12 2 15-2" data-secondary="true"/><path fill="#373660" d="M101 568a13 13 0 0 0 0-2l1-7a98 98 0 0 1 1-9 77 77 0 0 1 4-12 42 42 0 0 1 6-10 22 22 0 0 1 7-7 21 21 0 0 1 6-2 11 11 0 0 0 3 0 10 10 0 0 0-3 0 19 19 0 0 0-6 2 22 22 0 0 0-8 6 42 42 0 0 0-6 11 71 71 0 0 0-4 11 83 83 0 0 0-1 10v9Z"/><path fill="#373660" d="M101 563a4 4 0 0 0 0-1v-15a421 421 0 0 1 9-78l2-6 1-5 1-4a5 5 0 0 0 0-1 5 5 0 0 0-1 1l-1 3-1 5-2 7a372 372 0 0 0-6 39 404 404 0 0 0-2 51v3a5 5 0 0 0 0 1Z"/><path fill="#373660" d="M101 536a21 21 0 0 0 0-3l-1-9a120 120 0 0 0-3-13 109 109 0 0 0-5-16 84 84 0 0 0-17-26 44 44 0 0 0-4-3l-1-2-2-1a21 21 0 0 0-3-2 101 101 0 0 1 10 9 88 88 0 0 1 16 25 126 126 0 0 1 5 16 128 128 0 0 1 4 13l1 9a21 21 0 0 0 0 3Zm-26 48 3 37h47l3-37H75zm-4-15h63v15H71z"/><path fill="#373660" d="M71 619v4h62v-4H71zm6 11-3-7h56l-3 7H77z"/><path fill="#fff" d="m127 596-1 1-3 4-7-10h1l-7 10-8-10v1l-7 9h-1l-6-10-8 10-3-5-1-1 1 1 3 5 8-10 7 9h-1l7-9h1l8 9 6-9h1l6 9 3-3 1-1Zm4 28Z"/><path d="M416 251c-7 0-10-15-10-15s-1 14 8 18c0 0-3 1-6-1 0 0 10 9 17 4Zm11-42s-13 9-1 22a15 15 0 0 1-7-13 14 14 0 0 1 8-13 10 10 0 0 1 6-1 15 15 0 0 0-6 5Z"/><path fill="#fed0bc" d="m467 301 8 12 25-30s-9-5-16-19c0 0-3-8-11-6s-1 0-1 0l2 20Z"/><path fill="#f4a57f" d="M467 301s9-9 12-19l-4 31Z"/><path fill="#ffc967" d="M467 332s-5-22-1-26c0 0 7 2 13 10Z" data-primary="true"/><path d="M467 332s-5-22-1-26c0 0 7 2 13 10Z" opacity=".2" style="isolation:isolate"/><path fill="#fea74b" d="M492 276h6l-3 3-3-3z"/><path fill="#ffc967" d="m475 368-8-36 12-16 26-28s97 51 101 175c0 0-29 16-67-4 0 0-21-3-34-2 0 0-25-49-29-81l-1-8Zm-16-58 5-4h2s-4 1 1 26c0 0-5-18-8-22Z" data-primary="true"/><path d="M490 421s43-53 46-89c0 0 7 92 0 127 0 0-20-4-31-2l-15-36Z" opacity=".2" style="isolation:isolate"/><path fill="#ffc967" d="M467 331s-18-17-9-21c1 0 3 3 9 21Z" data-primary="true"/><path d="M467 331s-18-17-9-21c1 0 3 3 9 21Z" opacity=".2" style="isolation:isolate"/><path fill="#ff6d60" d="m577 484 11 45h6l-10-45h-7z" data-secondary="true"/><path d="m577 484 11 45h6l-10-45h-7z" opacity=".4" style="isolation:isolate"/><path fill="#a7a9ac" d="m182 299 5-7 235 173-5 7z"/><path fill="#d1d3d4" d="m203 314 128 106 75 43-203-149z"/><path fill="#d1d3d4" d="m229 644 98-230 12 5-103 225h-7z"/><path fill="#d1d3d4" d="m402 654-60-247-12 1 66 244 6 2z"/><path fill="#fed0bc" d="m574 227 6 11a26 26 0 0 1 0 16l-7 21s15-39 25-37a58 58 0 0 0 8 0s-10-7-20-41l-7 2Z"/><path d="M589 204c-4 106 46 119 46 119-57-12-49-126-49-126Z"/><path fill="#ffc967" d="m606 215-1-1c-1 0-3-13 0-21 2-5 5-7 10-7a6 6 0 0 1 5 5c1 5-3 13-14 23Zm8-28a8 8 0 0 0-7 4c-4 6-2 19-1 22 12-12 14-19 13-22a6 6 0 0 0-4-4 9 9 0 0 0-1 0Z" data-primary="true"/><path fill="#ffc967" d="M619 245v-1c6-3 5-9 3-14a26 26 0 0 0-5-7l-9-10c-7 5-16 2-17 2l1-1s10 3 15-2h1l10 11a27 27 0 0 1 5 7c2 5 3 11-4 15Z" data-primary="true"/><path fill="#ffc967" d="M613 214a16 16 0 0 1-6-1v-1s5-7 10-4a2 2 0 0 1 1 3 4 4 0 0 1-2 3 6 6 0 0 1-3 0Zm-5-2c4 1 6 2 8 1a3 3 0 0 0 1-2 1 1 0 0 0 0-2c-4-2-8 2-9 3Z" data-primary="true"/><path fill="#ff6d60" d="M573 275s-19 47 12 76c0 0 19 27 21 46 0 0 46-19 57-31 0 0-30-26-28-47l-3-41s-15-36-26-40h-8s-10-3-25 37Z" data-secondary="true"/><path d="M596 270s5 38 39 49l-2-32s-30-5-37-17Z" opacity=".4" style="isolation:isolate"/><path fill="#f4a57f" d="m643 366 2-13-8 15a1 1 0 0 0 0 1c1 0 3 0 6-3Z"/><path fill="#ff6d60" d="M552 304s3 4 5 4a15 15 0 0 0 0-3 16 16 0 0 0 0-3Z" data-secondary="true"/><path d="M552 304s3 4 5 4a15 15 0 0 0 0-3 16 16 0 0 0 0-3Z" opacity=".4" style="isolation:isolate"/><path fill="#fed0bc" d="m535 287 14-7s7 7 8 22l-35 11s-9-4-6-25l8-63s-13-11-9-20c0 0 6-7 9-5l9 4a1 1 0 0 1 1 1 1 1 0 0 1-1 1 4 4 0 0 1-2 0s-4 3-7 1l-4 3a1 1 0 0 0 0 1l9 8s6 3 6 6Z"/><path fill="#fed0bc" d="M514 207s3-12 10-12l12 1s-2 4-6 2c0 0-6-2-7 2 0 0-5 1-9 7Z"/><path d="m373 228-1 2c-2 0-7-8-7-8-6-5 2-13 2-13 4 2 6 5 7 9a41 41 0 0 1-1 10Zm24 3c-4 1-13-2-14-3v-4a14 14 0 0 1 1-3 16 16 0 0 1 7-9h1a17 17 0 0 1 4-2c2 1 2 5 2 7a15 15 0 0 1-1 6 10 10 0 0 0 0 8Z" opacity=".4" style="isolation:isolate"/><path fill="#ff6d60" d="m290 357 9-14-3-19-21 22 15 11z" data-secondary="true"/><path d="m290 357 9-14-3-19-21 22 15 11z" opacity=".4" style="isolation:isolate"/><path fill="#fed0bc" d="M292 355s6 10 17 10l-3 4 5 4 4-7-2 9 9 6 6-12a10 10 0 0 0 0-1h6s-6 12 0 14c0 0 5-10 3-18l-38-21Z"/><path fill="#f4a57f" d="m437 434-2 16v4l-7 5a8 8 0 0 1-2-6s-7 1-4-9v-14Z"/><path fill="#ff6d60" d="m663 253-4 16a39 39 0 0 0-2 11 35 35 0 0 0 1 5 27 27 0 0 0 1 5s-60-4-64-23c0 0-10-24 3-29 0 0 12 0 20 7Z" data-secondary="true"/><path fill="#ff6d60" d="M659 290s4 0 6-9l-8-1s0 7 2 10Z" data-secondary="true"/><path d="M659 290s4 0 6-9l-8-1s0 7 2 10Z" opacity=".4" style="isolation:isolate"/><path fill="#fed0bc" d="M705 298c-15 35-33 48-33 48-6-1-12 1-12 1-3-5-5 4-5 4-3 2-5 8-5 8-1 5-4 3-4 3l4-14c1-9 11-10 11-10 15-12 28-56 28-56l-32-2a39 39 0 0 1 2-11l4-16 40 10c16 4 2 35 2 35Z"/><path fill="#fed0bc" d="M648 363s-2 4-5 3c0 0 2-22 8-22l-5 18a2 2 0 0 0 2 1Z"/><path fill="#ff6d60" d="M619 543h14a36 36 0 0 0 25-10 29 29 0 0 0 9-22 35 35 0 0 0-1-6l-11-53 2-14 16 65s7 29-23 42a36 36 0 0 1-15 3h-15Z" data-secondary="true"/><path fill="#ff6d60" d="m637 490-2-1 18-72a10 10 0 0 1 8 12l-12 53a10 10 0 0 1-12 8Z" data-secondary="true"/><path fill="#ff6d60" d="m672 346-39 154a18 18 0 0 1-13-21l30-120a18 18 0 0 1 22-13Z" data-secondary="true"/><path d="m672 346-39 154a18 18 0 0 1-13-21l30-120a18 18 0 0 1 22-13Z" opacity=".4" style="isolation:isolate"/><path fill="#ff6d60" d="M514 523h99a16 16 0 0 1 15 15v1H498v-1a16 16 0 0 1 16-15Zm-13-49h93a12 12 0 0 1 12 12H489a12 12 0 0 1 12-12Z" data-secondary="true"/><path fill="#ffc967" d="m485 326 20-38s-3-8-7-12c0 0-23 23-34 30 0 0 12 0 21 20Z" data-primary="true"/><ellipse cx="449.3" cy="272.4" fill="#fed0bc" rx="22.9" ry="33.9" transform="rotate(-23 449 272)"/><path d="M426 231s-22-1-13 19c0 0 4 11 16 6 0 0 8-5 9-12 0 0 4 8-3 18 0 0 8-4 6-17 0 0 13 27 24 23a12 12 0 0 1 3-9s8-6 16 5c0 0 14-24-6-47 0 0 12 3 14 15 0 0 1-17-17-18 0 0 5-3 6-6 0 0-12 7-16 3 0 0-29-16-38-2 0 0-9 10-1 22Z"/><path fill="#ffc967" d="m476 372-17 33-10-1 1 34a2 2 0 0 0 3 0s3 4 6-1c0 0 18 5 31-16 0 0-9-21-14-49Z" data-primary="true"/><path d="M455 408s4 18 4 29l4 1s-3-21-8-30Z" opacity=".2" style="isolation:isolate"/><path d="M385 178s8 1 11-2c0 0-4-3-2-9h-7Z"/><ellipse cx="361.2" cy="157.9" fill="#fed0bc" rx="27.6" ry="40.7"/><ellipse cx="388.8" cy="160.8" fill="#fed0bc" rx="7.5" ry="9.1"/><path d="M334 158s-21-28 0-31c0 0-10-12 0-14 0 0 5-2 14 3 0 0-7-13 7-15 0 0 18-3 32 13 0 0-1-6-4-8 0 0 7 5 10 17 0 0 8-4 7 14 0 0-2 14-5 18 0 0-5-8-12 0 0 0-8-12-6-21 0 0-24 13-31 10 0 0 14-3 19-10 0 0-21 8-29 8 0 0-3 10-2 16Z"/><path fill="#ff6d60" d="M338 173a9 9 0 1 1 9-9 9 9 0 0 1-9 9Zm0-17a8 8 0 1 0 8 8 8 8 0 0 0-8-8Zm23 13a9 9 0 1 1 9-9 9 9 0 0 1-9 9Zm0-17a8 8 0 1 0 8 8 8 8 0 0 0-8-8Z" data-secondary="true"/><path fill="#ff6d60" d="m369 156 14-2v1l-14 2zm-23 4h7-7zm-9-4 22-4v1l-22 4z" data-secondary="true"/><path fill="#d1d3d4" d="m175 286 7-9 256 188-7 9z"/><circle cx="336.6" cy="411" r="13.7" fill="#a7a9ac"/><path fill="#f4a57f" d="M348 322s6 10 9 11l2-8Z"/><path fill="#ffc967" d="M262 297s23 43 71 72l28-32-57-66Z" data-primary="true"/><path fill="#373660" d="M275 261s13 84 57 101l-33-90Z"/><path fill="#ffc967" d="M289 256s-5 56 26 88c0 0-26-63-17-80Z" data-primary="true"/><path d="M289 256s-5 56 26 88c0 0-26-63-17-80Z" opacity=".2" style="isolation:isolate"/><path fill="#fff" d="m332 362-17-18s-35-50-16-86l43-4s-8 57 15 78Z"/><path fill="#fed0bc" d="M426 406s-65-46-70-62l1-4v-10a9 9 0 0 0-7-7s-17-7-13-12l19 5s11-1 18 19c0 0 10 21 55 37Z"/><path fill="#fed0bc" d="M450 438s-49-12-61-23c0 0-13-4-19-22 0 0-9-21-15-13a1 1 0 0 1-2 0 1 1 0 0 1 0-1c-1-2-2-5 1-7 0 0-9-1-2-5 0 0-3-7 9-7 0 0 5-8 11 0l15 12 4 23 5 6 53 3Z"/><path fill="#f4a57f" d="M361 372s-1-5 3-2l6 6Zm6-16s2-4 6 2l11 11-12-9a9 9 0 0 0-5-4Zm-15 8s-7-7 9-4c0 0-7-1-9 4Zm-2-181h2a20 20 0 0 0 3 0c2 0 4-1 5 1a4 4 0 0 1 0 3 7 7 0 0 1-5 4 10 10 0 0 1-2 0 8 8 0 0 1-6-2 5 5 0 0 1-1-4 2 2 0 0 1 1-2 10 10 0 0 1 3 0Z"/><path d="M352 184h7c1 1 0 6-6 6-4 1-7-3-7-5 1-2 3-1 6-1Z"/><path fill="#fff" d="M359 184a1 1 0 0 1 0 1c-4 3-10 2-11-1h11Z"/><path fill="#f4a57f" d="M345 178c3-3 6-12 6-12 0 1-2 8-5 12a6 6 0 0 0 3 1v1a7 7 0 0 1-4-2Zm90 114v-1l-3-12h1s3 8 2 12a6 6 0 0 0 4-1v1a7 7 0 0 1-4 1Z"/><path d="M336 153a9 9 0 0 1 3-3h3s1 1-7 4Zm30-3a9 9 0 0 0-4-4l-3 1 7 3Zm65 119a9 9 0 0 0-5-2c-1 1-3 1-2 2h7Zm-68-109c0 2-1 3-2 3l-1-3 1-2 2 2Zm68 113-1 3-2-2 1-3 2 2Zm9-5a9 9 0 0 1 4-3h3s1 2-7 3Zm6 3c1 1 0 3-1 3l-2-2c-1-1 0-3 1-3l2 2ZM340 164l-1 2-2-2 2-2 1 2Z"/><path fill="#f4a57f" d="M443 294h2l1-1c1-1 3-2 4-1a3 3 0 0 1 0 2 4 4 0 0 1-1 3 7 7 0 0 1-2 1 5 5 0 0 1-4 0 3 3 0 0 1-2-1 1 1 0 0 1 1-2 7 7 0 0 1 1-1Z"/><path d="M445 294c2-1 3-3 4-2s2 4-2 6c-2 1-5 0-5-2-1-1 1-1 3-2Z"/><path d="M450 293a4 4 0 0 1-3 5 5 5 0 0 1-3 0 6 6 0 0 1 6-5Z"/><path fill="#fff" d="M449 292a1 1 0 0 1 1 1c-2 3-6 4-8 3l3-2 4-2Z"/><ellipse cx="472.7" cy="268.1" fill="#fed0bc" rx="8.1" ry="10.3"/><path fill="#f4a57f" d="m575 229 3 7s6-12 4-24Z"/><path fill="#fed0bc" d="M571 233a16 16 0 0 1-12 0l-1-1a24 24 0 0 1-4-2 28 28 0 0 1-2-2h-1a40 40 0 0 1-10-15c-7-15-4-31 7-35s24 4 30 19 4 32-7 36Z"/><ellipse cx="579.6" cy="192.2" fill="#fed0bc" rx="5.3" ry="8.7" transform="rotate(-30 580 192)"/><path d="M539 183s11 15 37 9c0 0-23 3-29-7 0 0 20 8 27 2l-4-14-26-2Z"/><path fill="#f4a57f" d="M549 223c0-5-3-13-3-13h1s3 8 2 13a6 6 0 0 0 4-1 7 7 0 0 1-4 1Z"/><path d="M545 200a9 9 0 0 0-5-1l-3 1s0 2 8 0Zm-1 5c1 1 0 2-1 2l-2-2c-1-2 1-2 1-2l2 2Zm10-6a9 9 0 0 1 4-3l3 1s1 1-8 2Z"/><path fill="#f4a57f" d="M557 226a14 14 0 0 0 1-1l2-1 3-1a3 3 0 0 1 1 2 4 4 0 0 1-2 4 6 6 0 0 1-1 1 5 5 0 0 1-4 0 3 3 0 0 1-2-2 1 1 0 0 1 0-1 7 7 0 0 1 2-1Z"/><path d="M559 226c2-1 3-3 4-2 1 0 1 4-2 5-2 2-5 0-6-1l4-2Z"/><path d="M564 225a4 4 0 0 1-3 4 5 5 0 0 1-3 1 6 6 0 0 1 6-5Z"/><path fill="#fff" d="M563 224c-1 3-5 5-7 3l3-1c2-1 3-3 4-2Z"/><path d="m560 202-1 3-2-2 1-3c1-1 2 1 2 2Z"/></svg>